<svg viewBox="0 0 120 120" xmlns="http://www.w3.org/2000/svg">

 <g>
  <title>background</title>
  <rect fill="none" id="canvas_background" height="602" width="802" y="-1" x="-1"/>
 </g>
 <g>
  <title>Layer 1</title>
  <path id="svg_1" d="m-1,-1l122,0l0,122l-122,0l0,-122z" fill="none"/>
  <path id="svg_2" fill="#fff" stroke-width="9" d="m49.37,100.96c-8.23,-11.33 -23.38,-29.9 -27.12,-45.5c-2.06,-14.1 -1.74,-13.35 1.25,-24.12c4.66,-10.76 12.78,-16.72 16.7,-18.4c3.93,-1.66 9.17,-4.63 20.39,-4.26c11.22,0.37 18.89,2.23 26,8.54c7.1,6.31 14.58,15.22 11.59,32.86c-3,17.64 -37.22,61.83 -38.15,62.58c-0.94,0.74 -2.44,-0.37 -10.66,-11.7z" stroke="#333" class="background"/>
  <path id="svg_3" fill="#fff" stroke-width="9" stroke-opacity="null" d="m49.24665,42.96353c1.07,-3.35 0.4,-5.1 4.66,-9.39c4.9,-3.98 7.94,-2.77 9.67,-2.77c2.37,1.1 4.83,1.7 6.56,5.59c1.73,3.89 1.86,4.3 1.07,8.32c-0.8,4.02 -4.13,6.04 -5.46,6.84c-1.33,0.8 -2.27152,0.83712 -4.52,2.55c-2.24848,1.71288 -1.87,2.95 -2,3.49c-0.13,0.54 -0.5144,5.71625 -0.46576,7.63337" stroke="#333" class="background"/>
  <ellipse stroke="#333" fill="#333333" id="svg_4" stroke-width="0" stroke-opacity="null" cx="58.75512" cy="75.50653" rx="5.08006" ry="4.93645"/>
 </g>
</svg>